<?xml version="1.0" encoding="UTF-8"?>
<svg id="Layer_1" xmlns="http://www.w3.org/2000/svg" version="1.1" viewBox="0 0 71.18 52.11">
  <!-- Generator: Adobe Illustrator 29.8.3, SVG Export Plug-In . SVG Version: 2.1.1 Build 3)  -->
  <defs>
    <style>
      .st0, .st1 {
        fill: #fff;
      }

      .st2, .st1 {
        isolation: isolate;
      }

      .st1 {
        font-family: ArialNarrow, Arial;
        font-size: 48px;
      }

      .st3 {
        display: none;
      }
    </style>
  </defs>
  <g id="Layer_11" class="st3">
    <path class="st0" d="M46.5,46.82c0,2.86-1.49,4.29-4.48,4.29-1.45,0-2.6-.36-3.46-1.09-.85-.73-1.28-1.79-1.28-3.2v-25.15c0-4.01.53-7.21,1.6-9.6,1.07-2.43,2.82-4.2,5.25-5.31s5.67-1.66,9.73-1.66c5.38,0,9.43,1.26,12.16,3.78,2.77,2.47,4.16,6.74,4.16,12.8v25.15c0,2.86-1.49,4.29-4.48,4.29-1.45,0-2.6-.36-3.46-1.09s-1.28-1.79-1.28-3.2v-25.15c0-3.16-.55-5.4-1.66-6.72-1.07-1.37-2.88-2.05-5.44-2.05-2.01,0-3.54.3-4.61.9-1.07.6-1.79,1.54-2.18,2.82-.38,1.28-.58,2.97-.58,5.06v25.15-.02h0Z"/>
    <path class="st0" d="M38.57,50.02l.65-.76h0l-.65.76ZM38.89,12.07l.91.41h0l-.92-.41h0ZM44.14,6.76l-.42-.91h0l.42.91ZM66.02,8.87l-.68.74h0l.67-.74h.01ZM62.25,50.02l.65-.76h0l-.65.76ZM59.3,14.95l-.79.62h0v.03l.78-.64h.01ZM49.26,13.8l-.49-.87h0l.49.87ZM47.08,16.61l.96.29h0l-.96-.29ZM46.5,46.82h-1c0,1.26-.33,2.03-.81,2.49-.49.47-1.32.79-2.67.79v2c1.64,0,3.05-.39,4.05-1.35,1.01-.97,1.43-2.34,1.43-3.94h-1,0ZM42.02,51.11v-1c-1.28,0-2.18-.32-2.81-.85l-.65.76-.65.76c1.08.92,2.49,1.33,4.1,1.33v-1h.01ZM38.57,50.02l.65-.76c-.57-.49-.93-1.24-.93-2.44h-2c0,1.62.5,3,1.63,3.96,0,0,.65-.76.65-.76ZM37.29,46.82h1v-25.15h-2v25.15h1ZM37.29,21.67h1c0-3.94.53-6.98,1.51-9.19l-.91-.41-.91-.41c-1.15,2.57-1.69,5.92-1.69,10.01,0,0,1,0,1,0ZM38.89,12.07l.92.4c.97-2.21,2.54-3.8,4.75-4.8l-.41-.91-.42-.91c-2.65,1.21-4.58,3.16-5.75,5.82l.92.4h0ZM44.14,6.76l.41.91c2.25-1.03,5.34-1.57,9.31-1.57v-2c-4.13,0-7.53.56-10.14,1.75,0,0,.42.91.42.91ZM53.86,5.09v1c5.24,0,9,1.23,11.48,3.51l.68-.74.68-.74c-2.98-2.75-7.32-4.04-12.84-4.04v1h0ZM66.02,8.87l-.67.75c2.46,2.19,3.83,6.11,3.83,12.05h2c0-6.17-1.41-10.79-4.49-13.55,0,0-.67.75-.67.75ZM70.18,21.67h-1v25.15h2v-25.15h-1ZM70.18,46.82h-1c0,1.26-.33,2.03-.81,2.49-.49.47-1.32.79-2.67.79v2c1.64,0,3.05-.39,4.05-1.35,1.01-.97,1.43-2.34,1.43-3.94h-1ZM65.7,51.11v-1c-1.28,0-2.18-.32-2.81-.85l-.65.76-.65.76c1.08.92,2.49,1.33,4.1,1.33v-1h.01ZM62.25,50.02l.65-.76c-.57-.49-.93-1.24-.93-2.44h-2c0,1.62.5,3,1.63,3.96,0,0,.65-.76.65-.76ZM60.97,46.82h1v-25.15h-2v25.15h1ZM60.97,21.67h1c0-3.22-.55-5.76-1.9-7.36l-.77.64-.77.64c.88,1.04,1.43,2.98,1.43,6.08h1.01ZM59.3,14.95l.79-.62c-1.33-1.71-3.51-2.43-6.23-2.43v2c2.4,0,3.85.64,4.65,1.66l.79-.62h0ZM53.86,12.9v-1c-2.08,0-3.81.31-5.1,1.02l.49.87.49.87c.85-.48,2.19-.77,4.12-.77v-1h0ZM49.26,13.8l-.49-.87c-1.32.74-2.19,1.9-2.65,3.4l.96.29.96.29c.32-1.06.89-1.77,1.71-2.23l-.49-.87h0ZM47.08,16.61l-.96-.29c-.42,1.41-.62,3.2-.62,5.34h2c0-2.04.19-3.62.53-4.77l-.96-.29h0ZM46.5,21.67h-1v25.15h2v-25.15h-1Z"/>
    <rect class="st0" y="19.6" width="16" height="16"/>
    <rect class="st0" x="16" y="3.6" width="16" height="16"/>
    <rect class="st0" x="16" y="35.6" width="17" height="16"/>
  </g>
  <g id="Layer_2">
    <g class="st2">
      <g class="st2">
        <g class="st2">
          <g class="st2">
            <g class="st2">
              <text class="st1" transform="translate(2.36 45.49)"><tspan x="0" y="0">CN</tspan></text>
            </g>
          </g>
        </g>
      </g>
    </g>
  </g>
</svg>