<svg width="40" height="639" viewBox="0 0 40 639" fill="none" xmlns="http://www.w3.org/2000/svg">
<mask id="path-1-inside-1_112_271" fill="white">
<path d="M40 639L40 0.000244141C17.9086 0.000245106 -4.45885e-07 17.9089 5.19759e-07 40.0002L2.67029e-05 639L40 639Z"/>
</mask>
<path d="M40 639L40 0.000244141L40 639ZM40 -0.999756C17.3563 -0.999755 -1 17.3566 -0.999999 40.0002L-0.999973 640L1.00003 638L1 40.0002C1 18.4611 18.4609 1.00025 40 1.00024L40 -0.999756ZM-0.999973 640L40 640L40 638L1.00003 638L-0.999973 640ZM40 -0.999756C17.3563 -0.999755 -1 17.3566 -0.999999 40.0002L1 40.0002C1 18.4611 18.4609 1.00025 40 1.00024L40 -0.999756Z" fill="white" mask="url(#path-1-inside-1_112_271)"/>
</svg>
