<svg width="96" height="66" viewBox="0 0 96 66" fill="none" xmlns="http://www.w3.org/2000/svg">
<mask id="path-1-outside-1_78_51" maskUnits="userSpaceOnUse" x="38" y="17" width="36" height="49" fill="black">
<rect fill="white" x="38" y="17" width="36" height="49"/>
<path d="M48.504 60.224C48.504 63.0827 47.0107 64.512 44.024 64.512C42.5733 64.512 41.4213 64.1493 40.568 63.424C39.7147 62.6987 39.288 61.632 39.288 60.224V35.072C39.288 31.0613 39.8213 27.8613 40.888 25.472C41.9547 23.04 43.704 21.2693 46.136 20.16C48.568 19.0507 51.8107 18.496 55.864 18.496C61.24 18.496 65.2933 19.7547 68.024 22.272C70.7973 24.7467 72.184 29.0133 72.184 35.072V60.224C72.184 63.0827 70.6907 64.512 67.704 64.512C66.2533 64.512 65.1013 64.1493 64.248 63.424C63.3947 62.6987 62.968 61.632 62.968 60.224V35.072C62.968 31.9147 62.4133 29.6747 61.304 28.352C60.2373 26.9867 58.424 26.304 55.864 26.304C53.8587 26.304 52.3227 26.6027 51.256 27.2C50.1893 27.7973 49.464 28.736 49.08 30.016C48.696 31.296 48.504 32.9813 48.504 35.072V60.224Z"/>
</mask>
<path d="M48.504 60.224C48.504 63.0827 47.0107 64.512 44.024 64.512C42.5733 64.512 41.4213 64.1493 40.568 63.424C39.7147 62.6987 39.288 61.632 39.288 60.224V35.072C39.288 31.0613 39.8213 27.8613 40.888 25.472C41.9547 23.04 43.704 21.2693 46.136 20.16C48.568 19.0507 51.8107 18.496 55.864 18.496C61.24 18.496 65.2933 19.7547 68.024 22.272C70.7973 24.7467 72.184 29.0133 72.184 35.072V60.224C72.184 63.0827 70.6907 64.512 67.704 64.512C66.2533 64.512 65.1013 64.1493 64.248 63.424C63.3947 62.6987 62.968 61.632 62.968 60.224V35.072C62.968 31.9147 62.4133 29.6747 61.304 28.352C60.2373 26.9867 58.424 26.304 55.864 26.304C53.8587 26.304 52.3227 26.6027 51.256 27.2C50.1893 27.7973 49.464 28.736 49.08 30.016C48.696 31.296 48.504 32.9813 48.504 35.072V60.224Z" fill="white"/>
<path d="M40.568 63.424L41.2156 62.6621L41.2156 62.6621L40.568 63.424ZM40.888 25.472L41.8012 25.8797L41.8038 25.8737L40.888 25.472ZM46.136 20.16L45.721 19.2502L45.721 19.2502L46.136 20.16ZM68.024 22.272L67.3462 23.0072L67.3522 23.0127L67.3582 23.0181L68.024 22.272ZM64.248 63.424L64.8956 62.6621L64.8956 62.6621L64.248 63.424ZM61.304 28.352L60.516 28.9676L60.5267 28.9813L60.5378 28.9946L61.304 28.352ZM51.256 27.2L50.7674 26.3275L50.7674 26.3275L51.256 27.2ZM49.08 30.016L50.0378 30.3033L50.0378 30.3033L49.08 30.016ZM48.504 60.224H47.504C47.504 61.4878 47.1762 62.2547 46.6925 62.7176C46.2007 63.1883 45.3739 63.512 44.024 63.512V64.512V65.512C45.6608 65.512 47.0739 65.121 48.0755 64.1624C49.0852 63.196 49.504 61.8189 49.504 60.224H48.504ZM44.024 64.512V63.512C42.7392 63.512 41.8403 63.193 41.2156 62.6621L40.568 63.424L39.9204 64.1859C41.0023 65.1056 42.4075 65.512 44.024 65.512V64.512ZM40.568 63.424L41.2156 62.6621C40.6414 62.1739 40.288 61.4203 40.288 60.224H39.288H38.288C38.288 61.8437 38.7879 63.2234 39.9204 64.1859L40.568 63.424ZM39.288 60.224H40.288V35.072H39.288H38.288V60.224H39.288ZM39.288 35.072H40.288C40.288 31.1344 40.814 28.0908 41.8011 25.8796L40.888 25.472L39.9749 25.0643C38.8287 27.6318 38.288 30.9883 38.288 35.072H39.288ZM40.888 25.472L41.8038 25.8737C42.771 23.6685 44.3411 22.0778 46.551 21.0698L46.136 20.16L45.721 19.2502C43.0669 20.4608 41.1384 22.4115 39.9722 25.0703L40.888 25.472ZM46.136 20.16L46.551 21.0698C48.8031 20.0425 51.8868 19.496 55.864 19.496V18.496V17.496C51.7345 17.496 48.3329 18.0588 45.721 19.2502L46.136 20.16ZM55.864 18.496V19.496C61.1001 19.496 64.8683 20.723 67.3462 23.0072L68.024 22.272L68.7018 21.5368C65.7183 18.7864 61.3799 17.496 55.864 17.496V18.496ZM68.024 22.272L67.3582 23.0181C69.8165 25.2117 71.184 29.1238 71.184 35.072H72.184H73.184C73.184 28.9028 71.7782 24.2816 68.6898 21.5259L68.024 22.272ZM72.184 35.072H71.184V60.224H72.184H73.184V35.072H72.184ZM72.184 60.224H71.184C71.184 61.4878 70.8562 62.2547 70.3725 62.7176C69.8807 63.1883 69.0539 63.512 67.704 63.512V64.512V65.512C69.3408 65.512 70.7539 65.121 71.7555 64.1624C72.7652 63.196 73.184 61.8189 73.184 60.224H72.184ZM67.704 64.512V63.512C66.4192 63.512 65.5203 63.193 64.8956 62.6621L64.248 63.424L63.6004 64.1859C64.6823 65.1056 66.0875 65.512 67.704 65.512V64.512ZM64.248 63.424L64.8956 62.6621C64.3214 62.1739 63.968 61.4203 63.968 60.224H62.968H61.968C61.968 61.8437 62.4679 63.2234 63.6004 64.1859L64.248 63.424ZM62.968 60.224H63.968V35.072H62.968H61.968V60.224H62.968ZM62.968 35.072H63.968C63.968 31.852 63.4131 29.3105 62.0702 27.7094L61.304 28.352L60.5378 28.9946C61.4136 30.0388 61.968 31.9773 61.968 35.072H62.968ZM61.304 28.352L62.092 27.7364C60.7586 26.0295 58.5796 25.304 55.864 25.304V26.304V27.304C58.2684 27.304 59.7161 27.9438 60.516 28.9676L61.304 28.352ZM55.864 26.304V25.304C53.7851 25.304 52.0501 25.6092 50.7674 26.3275L51.256 27.2L51.7446 28.0725C52.5953 27.5961 53.9322 27.304 55.864 27.304V26.304ZM51.256 27.2L50.7674 26.3275C49.4522 27.064 48.5731 28.2254 48.1222 29.7287L49.08 30.016L50.0378 30.3033C50.3549 29.2465 50.9264 28.5307 51.7446 28.0725L51.256 27.2ZM49.08 30.016L48.1222 29.7287C47.6991 31.139 47.504 32.9323 47.504 35.072H48.504H49.504C49.504 33.0304 49.6929 31.453 50.0378 30.3033L49.08 30.016ZM48.504 35.072H47.504V60.224H48.504H49.504V35.072H48.504Z" fill="white" mask="url(#path-1-outside-1_78_51)"/>
<rect y="33" width="16" height="16" fill="white"/>
<rect x="16" y="17" width="16" height="16" fill="white"/>
<rect x="16" y="49" width="17" height="16" fill="white"/>
</svg>
